<?xml version="1.0" encoding="utf-8"?>
<!-- Generator: Adobe Illustrator 22.1.0, SVG Export Plug-In . SVG Version: 6.00 Build 0)  -->
<svg version="1.1"
	 id="Layer_1" mapsvg:geoViewBox="-85.951112 11.216982 -82.555690 8.032245" xmlns:dc="http://purl.org/dc/elements/1.1/" xmlns:mapsvg="http://mapsvg.com" xmlns:rdf="http://www.w3.org/1999/02/22-rdf-syntax-ns#" xmlns:svg="http://www.w3.org/2000/svg"
	 xmlns="http://www.w3.org/2000/svg" xmlns:xlink="http://www.w3.org/1999/xlink" x="0px" y="0px" viewBox="0 0 648.3 613"
	 style="enable-background:new 0 0 648.3 613;" xml:space="preserve">
<style type="text/css">
	.st0{fill:#D3D427;}
</style>
<path id="CR-A" class="st0" d="M243.3,26.9l13.4,7.8l6.8-2.2l1,2.4l0.9,1.2l3.8,1.6l6.7,2.3l3.7,2l6.4,7l2.8,1.5l1.4,0.3l1.2,0
	l1.4-0.5l1.4-1l1.5-1.6l0.9-0.5l3.9-0.9l2.9-2.8l0.5-0.3l0.5,0.2l0.8,0.8l1.8,2.9l0,1l-0.7,2.1l-0.6,1l0.1,1l1.9,1.3l1.2,2.4
	l0.7,1.8l1,1l1.9-0.1l2,0.3l1.3,0.5l0.9,0.8l1.2,1.7l0.1,1l0.6,0.5h1.4l4,0.8l1,0.4l1.4,1.4l3.2,1.1l0.8,1l0.5,1.4l-0.5,1.2l0.6,1.4
	l0.2,1.3l-0.8,1.4l0,1l-0.6,0.6l-2.8,0.8l0.4,1.2l1.4,0.7l0.5,1l2.3,0.5l1.6,1.1l0.2,1.4l0.9,1.4l1.2-1.1l0.9-0.5l1.3,0l1.9,0.7
	l2.3-0.4l1.4,0l0,0l-1.3,38.7l0.1,32.7l-0.1,24.3l-0.4,22.5l0.9,14.5l0,5l-1.4,2.9l0,2.7l-1.3,4.6l-1.1,2.3l-2.9,2.6l1.4,4.4l0,0
	l-2.2-0.1l-2.8,1.3l-2,1.7l-1.4,1.6l-2.8,2.1l-3.2,1.2l-7.6,0.6l-4.7,1.5l-4.7,0.2l-3.1-1.9l-2.6-0.7l-4.7,0l-0.1,0.3l-7.7,1.6
	l-2.6-0.1l-2.7,1.7l-1.1,1.1l-2.7,1.3l-1.6,1.1l-3,3l-2.6,0.8l-2.2,2.8l-0.5,1.6l-2.7,4.2l-2.5,0l0,0l-1.6-1.2l-2-0.9l-1-1.3
	l-0.4-2.5l-2.9-0.8l-2.8-0.2l-3.4,0.1l-4.9-0.9l-1.5-2.4l0.3-3.5l1.4-1.8l2.3-0.8l2.3-4.9l1.6-1.8l3.1-0.1l3-0.3l2.5-3.2l3-2.8
	l4.3-1.6l1-3.4l-0.4-3.6l-3-3l-3.5-0.4l-6.7-0.1l-0.8-2.4l-0.7-3.9l-2.7-1.3l-1.1-1.9l-3-6l0-3.2l-0.3-5.1l0.4-2.6l-2.2-1.5l1.5-3.2
	l1.6-2.4l1.6-3.8l-1.1-3.8l-2.4-2.5l-2-2.5l-2-0.7l-2.9,0.9l-2.6,1.6l-4.2,1.4l-6.4-4.4l-3.4-4.9l0,0l2.4-4l1.4-4.4l1.1-0.7
	l-2.5-3.9l0.8-6.9l0.1-3.2l0,0l3-0.1l4.4,0.3l1-0.4l-0.6-1l0-1.3l-0.4-1.1l-1.2-0.9l-1.8,0l-2.2-3.1l-3.4,0.3l0,0l-0.2-2.4l0.1-2.2
	l-3.1-0.4l-3-1.9l-4-2.7l-4.6-4.9l-5.4-3l-7.8-0.1l-2.3-3.3l-3.1-2.9l-3.3-2.2l-4.1-5l-1.7-4.5l-0.3-3.2l-1.2-3.3l-0.6-2.1l-2.3-0.8
	l-2.5-1.3l-4.9-0.8l-2.4-1.4l-2.6-0.7l-2.5,0.5l-3-0.2l-2-0.5l-3.6-5l-3.6-2.3l-3.6-0.9l-3.8-0.2l-5,0.6l-6,1l-3.6-0.3l-1.9-1.8
	l-1.9-5.7l-0.1-3.2l-3.2-1.9l-6.3-2.4l-3.2-2.9l-1.6-3l-1.1-2.7l-0.8-2.7l-1.8-2.3l-5.3-8.8l1.2-1.9l2.6-0.6l3.8-1.7l2.6-2.3
	l0.8-1.5l1.8-5.5l1.2-1.4l4.6-0.1l2-1.5l1.9,0l3,3.7l3.1,2.2l2.3,0l0.7-3.1l0.4-4.5l1.1-4.2l0,0l2.5,1.1l7.6,4l41.6,15l14.2,6
	l22.8-13.4l21.7-13.3L243.3,26.9z"/>
<path id="CR-C" class="st0" d="M383.6,206l24.8,13.3l5.8,3.3l13,5.5l19.5,9.3l31.8,0.2l25.3-0.2l-1.2,1.8l-2.6,1.2l-0.9,2.1l0.1,2.1
	l-2.7,0.5l0.1,4.2l0.8,4l1.4,3.3l0,4.4l-0.4,1.3l1.5,3.8l-3.6,4.1l-7.4,10.3l-2.5,2.8l-2.2,2.8l-1.9,3.2l-0.2,4.7l-1.2,4.1l-4.1,3.9
	l-3.5,2.7l-10.5,9.6l1.3,2.1l1.4,3.4l0.4,2.6l-0.3,2.7l0.7,2.1l0.9,3.7l0,0l-4.2-2l-6.2-5.3l-2.7-1.1l-3.6-0.9l-4.7-2.9l-2-0.9
	l-2.3-2.6l-2.4-0.9l-2.1,0.3l-1.4,1.2l-1.1,2.1l-3.1,2l-2.4-1.1l-4,1l-2.3-0.6l-0.9-2.1l-2.8-0.1l-1.4-0.9l-0.8-2.9l0.6-2.5
	l-1.8,0.2l-2.8-1.1l-2.3-0.6l-2.2-1l-2.9-0.6l-2.5-1.8l-1-2.7l0-3.6l-0.8-1.5l-3.2-0.5l-1,0.5l-2.1-0.3l-1.5-0.8l-2.9-2.9l-1.7,0.9
	l-1-0.5l-0.6-1.3l-2-1.3l-2-0.2l-0.7-1.1l0.2-1.9l-0.1-2.9l-4.8-2.1l-2.3-3.5l-1.8-4.7l-1.4,0.6l-5.1,3.1l-2.4,0.1l-3.3,0.8
	l-3.1-0.2l-2-1l0.9-1.8l-0.3-2.6l1.1-0.3l3.6-1.8l3.7-2.8l2-1.1l0.5-1.7l2.7-4.1l1-1.2l0.9-1.7l0.8-1.8l0-1.6l-1-1.1l-1.9-0.1
	l-3.1,0.4l0.3-2.8l2.8-2l2.4-2.8l0.2-3l1.3-0.7l8.2-1.1l2.8,0.6l3.4-0.7l2-1.7l1.6-1.8l1.7,0.5l1.4,0.6l3.4-1.1l0.9-1.8l-1.3-2.8
	l-0.5-3.3l-0.1-3.2l-1.4-2.9l-3-2.7l-4-1.5l-2.1-1.8l-2.2-9.5L383.6,206z"/>
<path id="CR-G" class="st0" d="M7.4,70.3L8,71.6l-1,0.2l-0.6-0.7l-0.9,0.1l-0.3-0.4l1.1-0.3l0.4-0.3L7.4,70.3z M82.6,10.7l20.2,7.4
	l10.9,0l11.4,5.9l7.3,3.4l0,0l-1.1,4.2l-0.4,4.5l-0.7,3.1l-2.3,0l-3.1-2.2l-3-3.7l-1.9,0l-2,1.5l-4.6,0.1l-1.2,1.4l-1.8,5.5
	l-0.8,1.5l-2.6,2.3l-3.8,1.7l-2.6,0.6l-1.2,1.9l5.3,8.8l1.8,2.3l0.8,2.7l1.1,2.7l1.6,3l3.2,2.9l6.3,2.4l3.2,1.9l0.1,3.2l1.9,5.7
	l1.9,1.8l3.6,0.3l6-1l5.1-0.5l3.7,0.2l3.6,0.9l3.6,2.3l3.6,5l2,0.5l3,0.2l2.5-0.5l2.6,0.7l2.4,1.4l4.9,0.8l2.5,1.3l2.3,0.8l0.6,2.1
	l1.2,3.3l0.3,3.2l1.7,4.5l4.1,5l3.3,2.2l3.1,2.9l2.3,3.3l7.8,0.1l5.4,3l4.6,4.9l4,2.7l3,1.9l3.1,0.4l-0.1,2.2l0.2,2.4l0,0l-2.6,1.1
	l-2.8-0.1l-5.5-5.5l-1.8-2.6l-3.9-3l-3-1.7l-2.9-0.4l-0.1-1.8l0.3-1l-0.7-0.8l-0.9,0.5l-3-1.4l-0.5,1.9l-1.9,0.7l-1.2-1l-3-0.3
	l-0.4,1.1l-1.1,0.1l-2.6-0.2l5.1,4.4l3.5,2.7l1.7,0.4l-0.2-1.7l2.3,0.4l2.3,2.6l3.3,1.6l3.2,0.6l2.4,0.7l2.8,1.9l0.4,3.9l4.4,0.7
	l4.4,1.8l3.3,1.6l0,0l-0.1,3.2l-0.8,6.9l2.5,3.9l-1.1,0.7l-1.4,4.4l-2.4,3.9l0,0l-3.2-2.6l-4.4-1.3l-3.4,1.6l-3.1,4.2l-1,4.4
	l-0.3,2.5l-3.3,8.9l1.1,6.9l-3.9,1l-4.2,3.8l0.7,3.8l-2.4,4.3l-2.5,0.1l-4.1-2.5l-10.1-4l-4.4-2.4l-3.7,0.1l0.6,7l0,0l-1.9-0.3
	l-0.4-0.5l0.1-0.5l-1.5-1.8l-2.1-1.6l0.2-0.8l1,0.2l0.7,0.6l1.4,0.3l0.5-0.3l0.2-0.5l-0.5-1.1l-1.2,0.5l-3.5-1.2l-1-0.8l-1.3-0.2
	l-2.9,1.2l-1.2,1.5l-1.4,0.3l-0.5-0.5l-0.9-0.1l-0.7-0.4l-1.4,0.2l-2-1.1l-2.4-0.4l-0.6,0.3l-1.7-0.5l-1.1-0.6l-1.5-0.3l-1.5-1
	l-1.6-1.5l-0.4-2l-1.1-2.4l0.7-0.4l0.4-1.4l-0.2-1.3l-1.2-2l-1.4-1.4l-0.1-0.8l-1.2-0.4l-1.1-0.9L130,184l-1.9-0.6l-0.8-0.8l1.1-2.2
	l-0.1-0.9l-3-3l-1.1-0.3l-0.8-0.8L123,174l-1.5-1.3l-5.4-0.1l-0.8,0.2l-1,1l-1.3-1l-1.5,0.1l1.2,0.8l0.8,1.1l0.7,0.2l0.8-0.6
	l1.5,0.4l2.4-1.1l0.9,0l1.7,0.7l1.5,1.6l1.1,1.8l2.4,1.5l0.5,0.9l0,0.7l-0.7,1.8l0.2,1.5l0.6,0.7l2.1,0.5l1.6,0.9l4,3.4l0.5,2.4
	l-0.5,1.3l-0.1,2.6l0.5,1.9l-0.5,1.1l0.3,2.4l-0.2,0.5l-0.6,0.3l-0.1,0.9l1.3,5.1l2.2,3.7l-2.4-2.2l-1.2-0.2l-0.2-0.3l-1.3,0
	l-0.7-0.8l-3.7,0.9l-1.2,1.2l0.7,0.4l0.8-1.1l1.1,0.1l0.7,0.9l-0.9,0.5l-0.6,0.8l0.2,0.4l0.5,0l1.6-1.4l0.1-0.5l-0.4-0.6l0.6-0.2
	l0.8,0.5l2.4,0.1l1,0.7l0.4,0.9l-0.2,0.4l-1.1,0.2l1.2,0.7l0.2,0.6l-0.9,1.1l0.5,1.6l0.6-0.6l2.1,2.2l1.4,1l4.2,1.8l1,0.9l0.6,1.8
	l1.1,0.5l1.5,2.3l2.1,1.1l1.1,0l0.7-0.7l0.4,0.6l-0.2,1.8l-0.4,0.6l-0.7-0.1l-1.1-1l-1.9-0.1l-1-0.6l-1.1-1.1l-0.8-1.5l-0.9,0.9
	l-0.6-0.1l-0.5,0.4l0.7,0.8l1.2-0.1l1,1.8l0.8,0.2l0.6,1.1l1.3-0.3l0.8,1.3l0.4,0.1l0.3,0.5l0,0l-0.9,1.2l-1.6,5.1l-2.2,2.2
	l-2.3,0.5l-3.6-0.3l-1.1,1.1l-4.2,0.9l-2.8,0.9l-3.8,0.4l-3,2.9l0,2.9l2.1,1.6l4.1,0.9l3.6,0.5l4.5,1.6l4.4,7.9l4.2,0.6l-1.4,2.9
	l-1.6,2.7l-0.9,3.1l0.7,5.1l-2.2,4.9l-2.8,2.4l-2.5,3.4l0,0l-0.9-1l-2.9-2.2l-3.5-1.8l0-0.8l0.5-0.5l0.2-0.9l-1.1-3l-5.2-4l-1.8-1
	l-2.1-0.7l-2.2-0.3l0-1l-1.5-1.3l-4.3-2.6l-1.8-0.3l-3.1-1.5l-1.8-0.5l-0.7,0l-0.5,1.1l-1.7-0.2l-2.2-0.9l-0.9-1l-1-0.5l-2-0.3
	l-2.5,0.4l-0.6,1.6l-0.5,0.4l-0.8,0l-3.5-2l-0.3-1.2l-0.6-0.4l-1.9,1.2l-0.9-0.1l-0.4,0.5l-0.5-0.1l-0.2-1.6l-1.9-1.6l-0.8-0.1
	l-1.7,0.9l-2,0l-2.5-1l-2.1,0.6l-1.1-0.8l-2.1-0.2l-1.8-1.5l-1.7,0.3l-1.2-0.3l-3,0l-0.7-0.5l-0.2-1.3l-1-0.9l-1.4-0.4l-1.2,0.1
	l-0.7,0.4l0,0.6l-0.3,0.5l-2.8-1.4l0.4-0.8l0.6-0.3l0.3-0.8l-0.4-2.8l-0.8-1.6l-1.4-1.9l0.2-0.7l-1.2-2.4l-3.8-4.8l-0.6-1.2
	l-1.4-1.3l-1.4-0.8l-3.7-3.8l-1-1.5l-0.7-2.6l-0.5-0.9l-2.4-2.1l-0.3-0.8l-0.5-0.2l-0.9-1.4l-2.9-3.6l-0.1-2l-1.1-1.2l-1.4-5.8
	l-1.2-1.5l-0.1-1.4l-2.2-4.8l-3-4.1l0.1-1.1l-0.5-1.9l0.1-1.8l-2.2-4.9l-0.2-1.9l0.6-1.9l-1.1-3.8l2.4-2.1l0.9-1.4l-0.8-2.3l-1-1.7
	l-1.6-1.6l-0.6-1.1l-0.9-0.3l-0.4-0.6l-0.5,0.2l-0.7-0.7l-0.5-0.1l-0.1-0.6l0.7-1.7l1.3-0.9l0.7,0l0.6,0.7l0.5-0.9l0.8,0.1l0.5-0.7
	l0.4-1.6l0.7-0.4l1.7-3.4l0.6-0.1l0.5-0.6l0.6-1.6l0.5,0.2l0.4,0.9l2.2,0.4l0.8-0.4l0.7-0.8l1.1-3.9l-0.5-2.6l1.2,0.1l0.5,0.9
	l1.2-0.6l1-1.5l0.2-1.5l-0.7-0.6l-0.4-2.6l-1.5-0.9l0.2-0.5l-0.4-0.4l-0.9-0.1l-0.5-0.5l0-1.6l-1-1.1l0.8-0.8l-0.6-1.1l-1.4-0.9
	l0.1-0.4l3-0.5l0.6-1.1l0.8-0.6l-0.1-0.7l0.6-0.8l0-0.4l1.2-0.9l1.3,0.4l0.9-0.2l0.5,1.2l1.2,1l1.3,0l3.6-3l2.2-0.8l1.8-1.7l0.1,0.4
	l0.8,0.5l0.8,0l1.1-1.4l-0.2-0.4l0.2-0.4l-0.7-1.4l0.1-0.3l2-0.2l1.5-0.7l0.5-0.5l-0.3-1.6l0.4-0.5l1.5,0.2l0.5-0.6l2.2,0.4l0.5-0.4
	l0.4-0.9l0.2-1.5l1.3,0.2l0.4-1.8l0.7-0.7l1.1-0.4l0.3-1.6l-0.2-0.7l-0.7-0.7l-3.8-1.3l-0.9,0.3l-1.3,1.2l-2,0.4l0,2.2l-0.7,0.3
	l-0.5,1.3l-1.6,0.5l-0.4,0.7l-1.1-0.4l-0.1-0.4l1.7-1l0.5-1.6l-0.8-0.5l0.6-1.2l0.4,0.1l0.4-0.7l1,0.1l0.7-1.2l-0.1-0.4l-0.8-0.4
	l-0.8,0l0.8-1l1-0.1l0.6-1.2l-0.5-0.7l0.1-0.4l1.4,0.4l2.2-1.4l0.3-0.8l-1.5-6.8l-1-2.6l0.5-1.5l-0.2-2l1-3.1l0.1-1.2L55,86.4
	l-2.2-2l-0.9-1.3L51,80.8l-2.7,0.2l-0.8-1l-1.4,0.1l-0.7-0.7l-0.8-0.1L43,79.7l-1.7-1.1l-1.5,0l-1.2,0.1l-1.3,0.7l-1.2,1.7l-2.4-1.4
	L31,78.8l-0.9,0l-0.4-1.2l-0.5-0.9l-0.7-0.5l-0.4-0.8l0.2-1.4l2.8,0.6l0.1-0.8l-1.2-2.3l-2.5,0.7l-1.5-0.1l-2.4-1l-5.1-0.1l-1.4-3.4
	L16.7,67l-2.4-0.7l-5.1-2.2l-1-0.8l-1.7-0.6l-1,0l-0.7,0.5L1.6,64l-1-0.4l1.8-1.1L4.9,62l1.7-0.9l0.7-0.7l2.8-0.4l1.2-0.6l1.7-0.2
	l0.6-0.4L14,58l2.3-0.5l1-2.1l-0.8-1l-3-1.6l2.1,0l0.5-0.3l5.3,1l0.7-0.5l1.4,0.1l1.1,0.7l0.7-0.2l1.2,1.3l0.1,0.6l-0.9,0.8l0.4,2
	l0.6,0.5L28,59l1.2,1.1l1.7,0.1l0.7-0.4l0.2-0.6l-0.2-0.7l-1.5-1.6l0.1-0.5l1,0l0.8-1.4l0.8,0.4l0.4-0.6l1.8-0.1l0.7,0.2l0.4,1
	l1-0.8l1.7,0.2l0.6-0.6l1.2,0l1,0.3l0.7,0.6l0.5-0.3l0.8,0.1l0.5,0.8l-0.2,0.8l0.9,0.7l1,0.1l0.5-0.5l0-1.9l1.2-0.4l0.5-0.8
	l-0.3-0.7l-2.9-1.5l0.4-0.9l1.6,0.3l0.3-1l0.8-0.3l1.6-0.1l0.7-0.8l0.2-1.4l-0.4-0.9l-0.8-0.7L47,45.3l-3-3.5l-0.7-0.4l-1.4-0.1
	l-1-0.8l-1.6-0.7l-1.6-2l1.5-2l1.5,0l0.2-0.4l-0.5-0.7l0.1-0.4l0.7-0.4l1.2,0.2l0.5-0.4l1.8,1.6l0.3,1l0.3,0.3l4.2,0.8l1.7-0.5
	l1-0.9l1.1-0.4l0.6-0.8l0.2-0.8l-0.4-3.2l-1.1-1.2l-1-0.4l-1.2-1.2l-1.6,0.1l3.2-5.7l3.2-5l0.8-1.8l6.6-10.6l0.8-1.6L64,0.9l0.8-0.6
	l0.9,0l8.3,1.3l1.4,0.4l1.4,1.4l3.7,4.7l1.1,2L82.6,10.7L82.6,10.7z"/>
<path id="CR-H" class="st0" d="M369,83.9l1.5,2.4l0.5,1.3l2.2,1.2l0.7,0.7l0.8,0.5l1.2,0.4l1.1,0.7l0.4,0.7l0.2,1.6l1,1l1.7,0.5
	l2.2,0.4l0.9,0.5l0.4,0.8l0.1,0.7l0.9,1.2l1.4,0.2l1.6-0.5l2.3-0.9l1.2-1.2l3.4,0.2l1.3,0.4l1.8-0.2l1.2-1.2l1.5-0.9l1.1-1.1
	l0.6-1.4l1.5-0.7l0.7-0.1l3.2,0.2l2.1-1.8l1.7-2.2l0.5-0.5l1.5,0.2l3.8-0.1l1.1-0.4l0,0l2.9,1.4l-0.3,2l-0.6,1.8l3.2,2.9l2.2,1.7
	l1.4,1.3l1.2,2.6l-5.2,0l-6.3-0.2l-2.3,2.2l-2.3,0.5l-2.1,0.1l-2.1,2.4l-1.5,2.5l-2.8-0.2l-1.4,3.1l-0.4,5.9l0.6,1.7l1.7,2.1
	l-2.4,5.6l-0.1,3.8l2.5,5.7l1.2,4.9l-1.5,4l0.6,2.3l-2.1,1.4l-3,0l-3.5,5.2l-0.5,2.8l1.8,5.1l2.8,3.7l0.9,5.2l0.3,5.6l-1.5,3.1
	l-2.1,3.5l-1.5,4.9l-1.6,2.7l-2,3l-2.1,2.5L387,198l0,0l-9.2,6.3l-1.7,2.2l0.1,2.5l-0.3,6.5l-1.6,2.1l-2.3,0.5l-3.4,0.2l-0.8,1.6
	l-0.1,1.7l-0.5,1.2l1.1,1.9l2.4,3.4l-0.5,2.9l-1,2.9l-2.5,2.8l-3.1,1.8l-2.9,1.2l-2.9,0l-1.1,0.6l-2.4,0.4l-3.6,1.1l-0.9-0.6
	l-2.9-0.4l-3.5,1.2l-2.4-0.2l-0.9-0.2l-1.3-0.6l-2.2-0.6l0,0l-1.4-4.4l2.9-2.6l1.1-2.3l1.3-4.6l0-2.7l1.4-2.9l0-5l-0.9-14.5
	l0.4-22.5l0.1-24.3l-0.1-32.7l1.3-38.7l0,0l1.2,0l3.1-0.4l1.2,3.5l1.7,0.4l2-1.2l0.8,0l1.3,0.3l3,1.7l1.9,0.1l1.2-0.3l0.5-1.8
	l0.9-0.9l0.8-0.2l0.9,0.2l1.8,0.8l0.2-1.3l0.4-1.1l0.6-0.3l1.3,0.1L369,83.9z"/>
<path id="CR-L" class="st0" d="M446.8,71.2l1.4,5.8l2.3,6.3l-3.7,0.6l-1.1-3.5l-1-3.7l-1.7-3.7l-1.3,3.3l1.1,3.5l1.5,3.9l1,3.7
	l-0.2,3.9l-1.7,3.1l-3.2,1.3l3.8-0.6l2.5-2.9l1.3,3.5l1-3.5l2.2-5.5l0.3,2.6l1.8,5.5l-0.3,0.5l0.4,1.2l0.3-0.1l2.3,5.5l1.4,4.2
	l4.1,9.1l0.4,1.7l1.8,3.5l0.1,1.8l-0.4,2.2l2.7,6.6l0.7,1.3l0.2-0.8l-2.8-7.7l0.4-0.7l3.6,8.5l0.6,1l0.6,2.4l1.1,2.8l2.1,3.2
	l3.4,6.6l3.7,5.7l2.1,4.4l1.7,1.8l5,7l1.9,3.4l4.8,4.7l-0.1,0.9l-0.8-0.1l-1-0.9l-0.6-0.2l0,0.6l2.9,2.1l0.2-0.8l0.8,0.7l6.2,7.6
	l4.6,6.8l0.3,1l0.6,0.7l0,0.6l1.2,1.3l1,1.7l0.2,0.7l-0.6,1.7l0.1,0.5l1-0.5l0.4,0.1l0.2-0.4l-0.6-1.9l-1.8-3.8l0.4-0.5l0.8,0.7
	l2.4,3.6l7,8.3l0.3,0.7l-0.3-0.1l-0.4,0.4l0.5,0.7l0.7,2.3l0.7,0.5l0.7-0.1l-1-1.6l0.2-0.7l4.6,5.3l0.5,0.3l1,1.9l1.1,1l1.1,1.8
	l3.1,3l9.2,12.5l1,1.1l3,1.4l1-0.4l0.7-1l0.7-0.4l1.2,0l1.3-0.9l0.7,0l1.1,1l1.3-0.6l2.8,1.3l1,0.9l-0.2,1l0.3,0.8l-0.7,1.8l0.1,1.1
	l4,7l3.6,3.5l0.9,1.3l-0.1,0.4l-0.8,0.5l0.2,0.3l1.7,0.6l1.9,2.6l8.7,10.7l3.6,5.5l5.2,5.8l3.4,4.9l1.8,0.8l1.5,1.5l1.8,0.4l1.9,0
	l2.2-1.8l0.8,0.2l0.4,0.6l-1.5,1.9l-0.2,1.9l0.8,0.9l2.9,5.8l0.7,2l1.5,0.9l0.5,1.5l1.2,1.1l3.5,0.9l1.5-0.6l0.7,0.1l3.8,2.1l1.3,0
	l2.5,1.1l1.8,0.3l1-0.2l1.1-0.7l1.8,1l2.3,0.4l1.2-0.1l1.2-0.9l1.2,0l1.7,0.9l1.2-0.4l1.1,0.1l1.3,1.3l-0.3,2.1l0.9,0.9l0.3,1.1
	l0.7,0.7l0.7,1.3l1.3,1.1l5.2,2.5l1.5,1.1l0.7,0.2l0.4,0.3l0.3,1.4l1,2.7l-0.1,0.9l-1.5,0l-0.5-0.4l-1.5-2.6l-1-0.9L641,319
	l-1.3,0.1l-0.8,0.9l-0.2,0.6l0.1,1.2l0.9,3l-0.5,2.1l-1.8,3.6l-0.7,0.6l-2-0.5l-0.8,0l-0.7,0.3l-0.8,0.8l-1.2,0l-1-0.9l-1-2.2
	l-0.5,0l-1.3,0.9l-1,1l-0.6-1.6l-1,0.2l-0.4,0.3l-2.6,0l-0.6-0.4l-0.1-2l-1.6-1.6l1.4-0.8l0.3-0.5l-0.5-0.8l-1-0.5l-1.1-1.4
	l-0.5,1.8l-0.4,0.2l-3.3-2.8l0.6-1.8l-0.1-0.4l-2.2-0.5l-0.6-1.7l-0.6-0.4l-1.6-0.6l-1.9,0l-1.5-1.6l-2.8-1.9l-0.6-0.2l-3.5,1.4
	l-1.6-1.5l-2.5-1.5l-0.7-1.1l-3.4,0.2l-0.9,0.6l-0.7,0l-0.4,0.7l-0.5,2l-2.3,1.6l-0.7,3.7l-0.8,1l0.6,0.5l-0.1,2.1l0.5,0.2l1.3-0.3
	l0.7,0.7l-0.2,0.9l0.3,0.9l-0.7,1l0.5,0.9l-0.5,1.1l0.3,0.6l0.8,0.9l2-0.1l0.3,0.5l-1,1l0.2,0.3l0.5,0l0.7-0.6l0.7,0.4l0.4,0.8
	l0.8,0l0.3,0.9l-0.4,0.5l-3.4,1l-11.7,2.4l-2.1,0.7l-0.4,0.5l-0.3,6.1l0.1,17.5l0.4,2.7l0,44.7l0.2,4.3l0.4,1.1l0.5,0.3l0,0l0.4,2.3
	l-5-1.5l-2.6-1.9l-2-3.8l-2-11l-2.7-1.5l-5.8-1l-4.1-1.1l-0.3-1l0.6-3.1l-2.4-4.8l0.3-2.2l-0.7-3.9l-2.5-0.9l-5-2.6l-4.1-1.9
	l-2.7-0.9l-4.1-5.8l-2.9-2.5l-3.7,0.3l-3.2,0.8L519,364l-2.5-3.6l-1.6-1l-4.7-0.9l-2.8-2.2l-2.1-2.3l-3.9-2l-2.7,1.3l-0.7,1
	l-0.3,3.2l-0.9,1.5l-2.1-0.5l-1.7,0.2l-3,1.4l-1.9,1.5l-0.5-2.4l-1.8-1.8l-3.4-1.3l0,0l-4.5-3.2l-4-8.2l-2-4.8l-1.3-6l-3.2-2.9l0,0
	l-0.9-3.7l-0.7-2.1l0.3-2.7l-0.4-2.6l-1.4-3.4l-1.3-2.1l10.5-9.6l3.5-2.7l4.1-3.9l1.2-4.1l0.2-4.7l1.9-3.2l2.2-2.8l2.5-2.8l7.4-10.3
	l3.6-4.1l-1.5-3.8l0.4-1.3l0-4.4l-1.4-3.3l-0.8-4l-0.1-4.2l2.7-0.5l-0.1-2.1l0.9-2.1l2.6-1.2l1.2-1.8l-25.3,0.2l-31.8-0.2l-19.5-9.3
	l-13-5.5l-5.8-3.3L383.6,206l0,0l2.3-5.8l1.1-2.2l0,0l3.7-2.5l2.1-2.5l2-3l1.6-2.7l1.5-4.9l2.1-3.5l1.5-3.1l-0.3-5.6l-0.9-5.2
	l-2.8-3.7l-1.8-5.1l0.5-2.8l3.5-5.2l3,0l2.1-1.4l-0.6-2.3l1.5-4l-1.2-4.9l-2.5-5.7l0.1-3.8l2.4-5.6l-1.7-2.1l-0.6-1.7l0.4-5.9
	l1.4-3.1l2.8,0.2l1.5-2.5l2.1-2.4l2.1-0.1l2.3-0.5l2.3-2.2l6.3,0.2l5.2,0l-1.2-2.6l-1.4-1.3l-2.2-1.7l-3.2-2.9l0.6-1.8l0.3-2
	l-2.9-1.4l0,0l1.9-1.5l2-0.9l2.4-0.2l1.3-1.1l1.1-0.1l1.8,0.7l3.4-0.7l1.6-0.8l2.1-3.1l0.4-2l-1.8-5.2l0-2.2l0.6-3.7l-0.2-1.3
	l-0.7-1.2l-1-1l0.7-2.9l-0.5-1l-2.7-3l0-0.7l0.2-0.4l2.1,0.5l1.9,0.7l4,3.6l3.2,3.7L446.8,71.2z"/>
<path id="CR-LA" class="st0" d="M222.7,143.6l3.4-0.3l2.2,3.1l1.8,0l1.2,0.9l0.4,1.1l0,1.3l0.6,1l-1,0.4l-4.4-0.3l-3,0.1l0,0
	l-3.3-1.6l-4.4-1.9l-4.4-0.7l-0.4-3.9l-2.8-1.9l-2.4-0.7l-3.2-0.6l-3.3-1.6l-2.3-2.6l-2.3-0.4l0.2,1.7l-1.7-0.4l-3.5-2.7l-5.1-4.4
	l2.6,0.2l1.1-0.1l0.4-1.1l3,0.3l1.2,1l1.9-0.7l0.5-1.9l3,1.4l0.9-0.5l0.7,0.8l-0.3,1l0.1,1.8l2.9,0.4l3,1.7l3.9,3l1.8,2.6l5.5,5.5
	l2.8,0.1L222.7,143.6z"/>
<path id="CR-P" class="st0" d="M393.3,482.6l-1.1,0.1l-0.9-0.4l-0.3-0.7l0.5-0.9l0-0.9l3.7,0.2l0.1,0.3L394,482L393.3,482.6
	L393.3,482.6z M444.3,440.8l-0.7,0.3l-0.4-0.3l-0.7-3.6l0.9-0.5l0.7,0.3l0.8,1.9l-0.2,1.3L444.3,440.8L444.3,440.8z M443.7,434
	l-0.9,1.2l-0.8-0.1l-0.4-0.6l0.2-2.8l-0.2-6.7l-2-5.7l0.9-0.2l1,0.2l0.6,1.7l0,0.8l1.3,3l-0.3,2l0.1,1.2l1.5,4.9l-0.2,0.6L443.7,434
	L443.7,434z M202.1,248.4l-3.7,0.2l-1-0.6l-0.6-0.9l0.1-0.4l2.1-0.7l0.1-0.6l-0.4-0.6l3.2,0.4l-0.2,2.2l0.6,0.8L202.1,248.4
	L202.1,248.4z M170.3,237.4l2.2,1.7l0.4,0.6l-3.6-0.1l-1.2,1.1l-0.8-0.3l-0.5-1.2l-1.2-0.8l0-0.5l0.7-0.4l1.6,0.1l0.4-0.4
	L170.3,237.4L170.3,237.4z M181.9,236.6l2.9,1.1l2,0.2l1,0.9l0.8-0.1l0.2,0.5l-0.5,0.4l-2.6-0.2l-5.4-1.8l-1.2,0.1l-0.1-0.4l1-0.4
	L181.9,236.6L181.9,236.6z M177.7,236.5l-0.5,0.4l-3.8-1l-0.8-0.5l0.2-0.5L177.7,236.5L177.7,236.5z M160.6,240.3l0.8,0.7l1.8,0.2
	l1.3-1l1.4,0.1l0.3,1.2l0.8-0.2l0.2,1.1l0.8-0.1l1.3-1.6l1-0.4l0.8,0l4.6,2.8l1.2,1.9l2.3,2.5l0.9,0.3l2.5-0.3l2.6,0.4l0.8-0.5
	l2.8-0.1l2,0.9l1.9,0.4l1.5,1.2l1.8,0.6l0.5,0.7l-0.2,1l0.2,1.2l0.5,0.8l-0.4,0.8l-1.2,0.4l-1.5,1.7l-0.3,1.4l0.2,0.8l1.8,1.8l1,0
	l0.3,0.8l-0.1,0.8l0.4,0.4l0.8-0.1l0.8,0.9l-0.3,0.4l-1.5-0.2l-2,1.9l-0.1,0.6l0.4,0.8l1.5,1.3l1.2,0.5l0.9-0.1l0.4-0.4l1.3-0.1
	l0.9-0.5l1.5,0.4l1.1-0.2l2.6,0.7l0.1,0.4l-0.4,0.8l-2.1,0.8l-0.5,1.1l-2,0.1l-1,0.2l-0.3,0.4l-0.6,1.7l-0.6,0.7l-3.3,0.9l-0.2,0.4
	l0.5,1l-1.7,2.9l-0.5,1.5l-0.6,0.4l-1.8-0.2l-0.4,0.4l-0.7-0.2l-0.7,1.8l0.6,1.8l0,1l-0.4,0.8l-1.2,0.6l-2.2-0.6l-1.7-1.5l-1.8-0.8
	l-0.7-0.7l-1.6,0.2l-1.2,0.9l-1.4,2.1l-0.3,1.5l0.2,1.1l2.4,1l0.8,0.7l0.1,0.6l-1,1.7l-1.6,1l-3.1,0.8l-0.9,0.5l-1.3,1.7l-2.6,1
	l-2.7,3.2l-1.7,4.2l-0.1,2l-2.4,7.4l-0.7,1.6l-2.8,0.9l-0.3,1l0.2,1.1l-0.3,0.3l-0.8-1l-0.4-1.1l-1-0.7l-2.2-0.5l-1.7-1.7l-0.6-1.3
	l-0.4-5.6l-0.7-0.9l-1.9-1.4l-7.9-8.7l-1-3.4l-0.7-1.3l-1-0.9l-0.8-2.2l-2.6-3.1l0,0l2.5-3.4l2.8-2.4l2.2-4.9l-0.7-5.1l0.9-3.1
	l1.6-2.7l1.4-2.9l-4.2-0.6l-4.4-7.9l-4.5-1.6l-3.6-0.5l-4.1-0.9l-2.1-1.6l0-2.9l3-2.9l3.8-0.4l2.8-0.9l4.2-0.9l1.1-1.1l3.6,0.3
	l2.3-0.5l2.2-2.2l1.6-5.1l0.9-1.2l0,0l-0.3,0.5l0.9,1.1l1.7,0.8l3.9,3.4l2.2,0.5l0.3,1.2l0.6,0.8L160.6,240.3L160.6,240.3z
	 M152.8,213.2l0.9,0.1l1-0.2l2.2,1l2.4,0.5l0.7,0.4l0.8-0.1l0.4,0.6l-0.4,0.8l-1,0.1l-1.5-0.7l-0.8,0.4l-5.2-0.9l-1-1.2l-0.3,0.1
	l-0.2,0.5l0.7,1.2l0.9,0.4l1.1,0.1l0.5,0.8l0.6,0l0.5-0.6l0.6,0.3l0.7-0.1l1.1,0.3l1,1.3l0.5,0.3l1.1-0.2l1.2-0.7l1.7,0l0.1,0.7
	l-0.5,0.9l-0.9,0.4l-0.1,0.4l-3.6,1.5l-1-0.1l-4,0.8l-3.1-0.2l-2.9-1.5l-0.7-0.8l-0.6-0.9l-1-3.7l-0.6-0.8l0.5-0.9l1,0.1l2.9-1.3
	l2,0.2L152.8,213.2L152.8,213.2z M220.7,174.1l3.4,4.9l6.4,4.4l4.2-1.4l2.6-1.6l2.9-0.9l2,0.7l2,2.5l2.4,2.5l1.1,3.8l-1.6,3.8
	l-1.6,2.4l-1.5,3.2l2.2,1.5l-0.4,2.6l0.3,5.1l0,3.2l3,6l1.1,1.9l2.7,1.2l0.7,3.9l0.8,2.4l6.7,0.1l3.5,0.4l3,3l0.4,3.6l-1,3.4
	l-4.3,1.6l-3,2.8l-2.5,3.2l-3,0.2l-3.1,0.1l-1.6,1.8l-2.3,4.9l-2.3,0.8l-1.4,1.8l-0.2,3.5l1.5,2.4l4.9,0.9l3.4-0.1l2.8,0.2l2.9,0.8
	l0.4,2.5l1,1.3l2,0.9l1.6,1.2l0,0l-2,2.2l-0.1,2.5l3.3-0.1l1.6,4.4l2.7-0.1l1.3,2l-3.5,3.1l-4.6-0.2l-1.3,0.8l-0.5,5.7l1.6,4.5
	l-0.5,4.6l0.9,2.5l4.5,4.8l0.1,3.6l1,3.4l2.6,3.2l1.3,0.5l3.5,1.1l6-0.2l3.5-0.7l3.2-0.4l0.9,2.7l1.9,1.6l2.9-3.2l2.3-3l1.9-2.8
	l-1.6-3.8l1.4-2.4l4.5,0.6l3.3-0.4l6-0.2l3.3-2.4l4.5,2.8l5.3,1.9l3.2,0l2.6-0.2l4.1,2.1l6-2.1l4.1,0.4l1.6,0.8l1,2.2l-0.7,6
	l2.2,3.4l2.2,0.8l3.8-1.6l4.2,1.7l-0.5,6.6l0.3,3.9l3.4,1.4l2.6,4l3.4,1.7l3.8,2.8l0.3,1.7l1.5,2.9l2.9-0.7l1.8,4.5l3.7,3.4l3.5-0.7
	l1.2-2l1.5-1.5l3.1,0.7l0.6,3.3l2.2,4.8l2.6,2.8l2.2,1.6l2.1,0.1l2.3,1l-2,4.4l0,3.2l0.6,6.5l5.2,4.3l6.4,3.3l5,0.9l4.3-5.2l6.4,4.5
	l3.5,6l2.3,5.2l2.1,3.7l3.6,1.1l4.6,2.1l3.2,4.4l9,3.7l2.5,1.9l4.1-0.5l3.1-1.5l1.9-1.7l1.4-3.1l0.1-4l2.8-2.8l1.6-4.2l-0.3-1.6
	l-1.2-2.7l-4,0l-2.7-1.1l-2-1.7l0.1-1.2l2.2-3.1l0.4-4.2l-0.3-1.2l1.7-2.5l2.3-1.6l1.8-1.8l2.8-6l2.8-2.7l1.8-3l2.7-3.6l0,0l3.4,1.3
	l1.8,1.8l0.5,2.4l1.9-1.5l3-1.4l1.7-0.2l2.1,0.5l0.9-1.5l0.3-3.2l0.7-1l2.7-1.3l3.9,2l2.1,2.3l2.8,2.2l4.7,0.9l1.6,1l2.5,3.6
	l3.2,0.7l3.3-0.8l3.7-0.3l2.9,2.5l4.1,5.8l2.7,0.9l4.1,1.9l5,2.6l2.6,0.9l0.7,3.9l-0.3,2.2l2.4,4.8l-0.6,3.1l0.3,1l4,1.1l5.8,1
	l2.8,1.5l2,11l2,3.8l2.6,2l5,1.5l-0.4-2.3l0,0l0.3,0.2l5.6-3l1.2-0.1l1.1,0.3l2.3,4.1l1.2,1.5l10,6.3l3,3.2l7.1,1.8l3.4,2.4l0.7,0.9
	l1.4,4.3l3.8,3.3l0.1,2l-0.3,1.1l-5.8,3.1l-1.3,2.6l-2,2.5l-1.2,0.7l-6.8,1.4l-1,0.4l-1.5,1.7l-1.4,0.5l-5.1,0.7l-1.4,0.5l-1.6,1
	l-2.2,2.5l-0.4,1.5l0.4,0.9l2.6,2.6l0,0.9l-0.5,1l-0.9,0.7l-3.5,1.5l-0.3,2.3l-3.3,0.8l-1.1,0.8l0.6,1.6l-0.1,0.7l-0.6,0.9l0,0.6
	l2.6,3.1l1.3,3.2l3,2.2l2.6,1.3l0.6,0.7l0.4,2.2l1.4,1.5l0.5,1.9l1.6,1.6l2,2.9l1,2L596,500l-1.3,1.4l0.1,0.6l0.9,1l-0.1,3.4
	l1.1,2.6l0,1.2l-0.6,1.6l-1.5,1.4l-0.5,0.9l0.9,4.6l0.1,3.1l-0.9,3.9l-1.8,3.9l-2.2,3l-1.5,1.2l-2.2,1.1l-4.2,1.1l-1.9,0l-1.4-0.4
	l-2-0.1l-4.1,4.2l-4.5,5.3l-3.8,3.4L560,551l-4.3,1.3l-1.3,0.7l-0.6,0.7l-0.2,1.1l0.1,1.4l1.3,2.1l3.5,1.1l0.9,0.6l4.4,3.5l1.4,2.1
	l0.7,0.1l2.7-1l4.5,1.2l2.1,1.1l0.4,0.8l0.5,3.1l0.7,1.5l-0.3,5.8l3,1.8l1.5,1.5l0.4,4.1l-0.5,3.1l3.3,8.7l0.2,5.8l-1.1,5.5
	l-0.2,3.7l-0.2-0.3l-1.3-0.1l-0.7-0.4l-2.2-3.7l0.4-1.2l-0.1-1.7l0.3-0.3l0.9-0.1l0.6-0.6l0.5-1.4l0.2-1.6L581,598l-1.8-2.4
	l-0.4-1.5l-1.2-1.4l-0.4-0.9l-0.3-2.6l-2.5-5.6l-6.8-10l-3.6-3.5l-3.6-1.5l-10-7.7l-9.5-5.5l-2.6-2.6l-1.9-1.3l-1.4-2.1l-0.3-2.6
	l0.2-1.7l0.9-1.7l3.2-2.7l2.1-1.2l1-1.2l0.5-3.2l1.4-1.5l0.5-1l-0.1-0.8l-1.8-3.4l-1.8-2.7l-5.3-6.1l-1-3.4l-0.9-1.4l0.5-0.1
	l0.9,0.6l0.6,1.9l0.8,0.6l0.7-0.1l-0.2-0.8l-0.6-0.4l0.1-0.9l0.6-0.4l2.2,0.4l2.2-2.3l1.5,0.3l0-0.4l-0.8-0.4l-1.2-0.1l-3.1,1.7
	l-0.9,0l-1.1-0.9l-0.9-1.5l-1.3-0.5l-0.7-0.6l-4.6-6.3l-0.3-1.5l1.5-3l0.9,0.4l0.5,1.8l0.7,0.5l1.2,0.3l0.1,0.6l-0.9,1.3l0.8,0.9
	l-1,1.4l0.8,1.6l2.7-1.6l1-1.1l1,0.1l0.7,0.5l0.7-1l-0.1-0.5l-1.2-0.6l-0.9,0.4l-0.4-0.2l-0.5-1.7l-3.7-4.6l-1.8-0.8l-1-1.2
	l-0.9,0.6l-0.6-0.6l-0.6,0L527,497l0,0.3l1.3,0.5l0.3,0.6l0.1,1.1l-0.4,0.8l-0.7,0.3l-0.7-0.1l-0.7-0.6l-1.9-0.1l-1.1-0.9l-0.9,0.4
	l-0.8-0.2l-0.3-0.3l0.4-0.8l-0.2-0.5l-0.7-0.3l-2.7-0.1l-1,2.3l-0.6-0.2l-1.3-2.2l-1-3l-0.6-0.3l-1.5,0.5l-2.8-0.9l-1.1,0.1l-1.4,1
	l-2.5-3.1l-0.8-0.4l-1.3-0.1l-0.6-0.3l-0.4-0.8l-1.1-0.4l-0.4-0.4l0.6-0.8l-0.6-1.8l0.5-1.3l0.1-1.3l1.1-0.9l0.3-1.8l-1.2-0.6l-1,1
	l-0.6,0l-0.4-0.6l-1.1-0.2l-1.2-1.5l-0.8-0.2l-0.5,0.6l-1.7-0.5l-1.9-0.2l-0.3-0.2l-0.1-1.5l-0.4-0.3l-0.8,0.5l-0.1,0.8l-0.9,0.6
	l-0.2,1.1l-0.4,0.3l-0.8-0.1l-0.1-0.8l-0.4-0.4l-0.7,0.3l-0.7-0.1l-1.8,2.4l-1.7,1.1l-1.5,0.3l-1-0.2l-0.3-1.2l-2.9,0l-1.5-0.5
	l-1.1,0l-0.3,0.6l-0.6,0.3l-1.2-0.2l-1.1,1.7l-0.2,1.9l0.4,1.1l0.7,0.3l0.9-0.8l0.8,0.1l0.7,0.6l0.1,0.5l-0.8,1.5l0.5,0.5l0.7-0.6
	l0.8,0l1.2,0.9l1.4,1.6l1.5,1l1.5,2.7l-0.7,3.1l0.1,1.1l0.8,0.6l0.4,0.9l0.9,0.9l2.2,1.8l2.2,2.5l1.6,1.4l1.3,0.7l1.2,0l1.5,1.5
	l2.6-0.4l5.2,1.9l2.6,2.5l1.6,2.1l1.5,0.5l1.1,0.9l0.8-0.5l0.2-1l0.5,0.6l0.2,0.9l-1.1,7.8l0.6,1l3.4,3.8l-0.2,0.8l-0.7,0.9l-2,1.8
	l0.2,0.8l2,3l0.2,0.8l-1.6,4.2l0.6,3l-0.7,1.6l-2,1.3l-4.4-1.5l-5.1-2.4l-7.4-2.5l-5.5-2.5l-3.2-2l-2-0.7l-9.1-1.8l-4.1-0.2l-2.4,0
	l-4.2,0.7l-0.3,0.3l-1.2-0.5l-2,0.6l-1.2-0.2l-4.7-3.5l-0.5-1.8l-1.5-1.9l-2.5-2.3l-4-2.3l-7.4-8.3l-6.2-6.4l-2.1-0.6l-0.2-0.7
	l-0.8,0.4l-0.7,0.7l-0.6-1l-0.6-2.4l-1.7-2.5l0.1-0.7l1.3-2.4l0.4-1.7l1-1.4l1.4-0.5l0.4-0.6l0.5-4l0.5-1.1l2.1-1.8l2-0.7l5.8-0.4
	l0.9-0.3l0.7-0.9l0.6-1.8l-0.2-2.2l0.6-1.9l1-1.2l1.3-0.5l0.7-1l-0.5-0.6l-0.7-0.1l-0.5,0.6l-0.4,0l-0.4-2.1l0-1.2l0.3-0.8l0.5-0.4
	l2.2-0.1l1.7-0.7l1.1-1.9l1,0.6l0-0.5l-1-1.8l0.3-0.2l2.7-0.4l1.9-0.6l1.5,0.5l1.5-1.2l-0.4-1.2l-0.4-0.2l-0.8,0.4l-0.1-1.7l-0.3,0
	l-0.4,0.7l-0.4,1.5l-0.9,0.3l-3,0l-2-0.4l-0.7,2.6l-0.5,1l-1.6,1.1l-0.9-0.1l-2.5-2.7l4.8-5.1l1-0.5l0.7-1l1.1-0.4l1.1-0.9l0.7-1.2
	l2-0.6l2.4,1.2l1.4,0.1l1.3,0.8l0.6-0.3l-0.7-1.2l-1.8-1.4l-0.3-1l0.4-0.6l1,0.8l3.5-0.1l1.1-0.3l1.7,0.6l1.2-0.7l0.1,0.5l-1.3,2.6
	l-0.7,2.8l-1,1.3l-0.9,0.3l-1.5,0l-1.1,0.7l-0.4,1.2l0.1,1l-0.5,0.8l-1-0.2l-0.1,0.4l0.4,0.4l0.8,0.5l0.9-0.3l0.7,0.1l0.6-0.7
	l-0.1-1.4l0.4-0.7l1.5-0.4l1.6-1.1l1.2-3.1l-0.1-1.7l0.6-1.3l0.8-0.2l0.9,0.7l0.5-0.1l2.1-1.5l3.5-0.5l0.5-0.6l-0.3-0.9l-0.8-0.4
	l-0.3,0.6l-0.7,0.5h-2.5l-2,1.3l-0.5-0.3l-0.1-0.8l1.1-1.3l-0.6-0.5l-1.2,0.6l-0.9-0.2l-1.3,1.1l-2.2-0.7l-2.2,0.5l-1.4-0.5l-1-1.1
	l-0.8-0.1l-0.8,0.5l-0.2,1.3l0.5,1.8l-0.2,0.4l-0.4,0l-0.9-0.7l-0.5-2l-0.9-0.2l-2.4-1.5l-3.7,0l1.3-2.8l0.2-2.1l1.4,1l1.9,0.8
	l5.1,0.8l1.3,0.6l0.6,0.8l1.8,0.6l-0.5-2.3l-1.2-0.8l-0.4-0.8l0.8-1.3l0.7-0.1l1.5,0.6l1.2-0.1l0.2-0.9l-0.5-0.6l-1.6-0.2l-1.4,0.2
	l-1.7,0.9l-0.8,1.6l-0.7,0.6l-3.2-2l-0.6,0.2l-1.8-0.6l-0.7-0.5l-0.3-1.1l0.1-0.4l0.7,0.9l1.8,0.5l1.2,1l0.9,0.1l0.5-0.5l0-0.5
	l-3.5-1l-0.4-0.3l-0.3-1.2l-0.4-0.3l-0.7-0.2l-1.9,1.5l-0.7,0.1l-0.4-0.4l0-0.6l0.5-0.8l2.4-2l0.5-1.1l-0.2-0.9l0.5-3.1l-0.2-1.6
	l-1-2l0.1-0.7l-0.6-2.5l-0.8-1.4l0-1l0.4-1.3l0.7-0.3l2.3,0.1l0-0.4l-2.5-0.9l-0.6-1.9l0.2-1.5l0.7-0.5l0-0.4l-1-0.2l-0.5-1.2
	l-1.3-0.1l-0.7-0.4l-1.6-2.2l-1.5-0.9l-0.8,0.9l-0.8,0l-1.2-2.5l-2.5-1.6l0.2-0.8l-0.2-0.7l-1.2-0.4l-1.1-1.9l-3.6-3.3l-0.4-1.6
	l-2.1-1.4l-1-1.6l-1.2-1.1l-0.8-0.3l-1.8,0.2l-0.9,0.5l-0.5,1.1l-0.4,0l-1-0.7l0.9-1.2l-0.5-1.7l-0.1-3l-0.6-1l-2.3-2.1l-3.9-2.3
	l-6.5-2.7l-2.3-0.3l-0.3-0.4l0.5-1.5l-0.6-0.9l-1.2-0.9l-1.8-2.5l-5.1-3.7l-1.7-1.7l0.1-1.1l-0.6-0.5l-0.6,0.1l-0.5,0.6l-3.7-2.7
	l-0.2-1.2l-0.4,0.1l-0.4,0.7l-8.9-4.9l-9-3.8l-0.6-1l0.9-1.5l-0.5-0.5l-0.6,0.5l-0.4,1.8l-0.7,0l-1.3-0.5l-2.8-1.7l-2-0.6l-2.9-1.5
	l-5.4-1.3l-0.8,0.2l-1.5,1l-0.5-2.4l-0.5-0.3l-0.5,0.3l-0.6,0.9l-1.1-0.1l-0.8,0.4l-0.8-1.8l-1.2-1.2l-1.1-0.5l-1.2-0.1l-0.9,0.3
	l-0.8-0.1l1.1-1.6l1.1,0.3l0.3-0.8l-1-2.9l0.6-1.1l-1.3-1.8l-2.4-1.3l-1.7-1.8l-1.1-1.6l-1.3-0.9l-4-1.3l-1.5-1.5l-1.5-2.9l-1-1
	l-0.7-0.2l-0.4,0.7l0.5,1.1l3.5,4.1l1.6,1.1l1.8,0.6l1.5,0.1l0.5,0.3l0.2,0.9l-0.3,0.4l-1.1,0l-2.2-0.6l-0.4-0.5l-3.1-1.3l-2.3-1.6
	l-1.5-2.4l-2.3-0.1l-1.9-1l-1.2,0.2l0.6,0.7l0.6,0.2l3,0.5l0.6,0.5l0,0.5l-0.5,0.2l-3.4-1l-1.5,0l-0.4-0.4l-2.8-0.2l-0.4,0.2
	l-1.7-1.2l-0.8-0.2l-0.6-0.5l0.4-0.5l-0.1-1.1l-0.5-0.2l-0.6,0.8l-1.2,0.1l-0.1,0.3l0.3,0.6l-0.3,0.1l-10.3-2.4l-1-0.9l-0.5,0.5
	l-2.2-0.3l-0.8-0.4l-0.3-1.3l-0.7-0.3l-0.8,0.7l-1.1-0.1l-2.3-1l-1.3-0.1l-2.9-1.1l-1.9-0.3l-1.1,0.1l-1.5-0.5l-0.3,0.7l-8.2,1.4
	l-1.9-2.2l-0.4-0.9l1-1.2l-0.4-0.9l-2,0.7l-1.4-1.2l-0.5-0.1l0.1,0.7l0.8,0.8l-0.3,0.2l-1.7-1.5l-0.3-0.7l-0.8,0l-2.3-2l-4.6-2.7
	l-0.7-0.5l-1.5-2.5l0.2-1.4l-1.2-1.3l-0.2-0.9l-0.6-0.9l-0.4,0l-1.1-1l-1.1,0.6l-0.6-0.2l-1.6-1.5l-0.3-0.7l0.9-0.8l0.3-0.8
	l-0.1-0.7l-1-1.1l-1.2-0.5l-2,0.5l-0.4-0.4l-0.1-0.6l1.3-1.4l-0.2-1.1l0.5-0.9l-0.1-0.6l-1.2-0.9l0.4-2.9l0.8-0.9l0.7-0.2l0.5-0.8
	l0.1-1l0.9-1.7l2.2-2.3l1-0.2l0.5-1l0.7-0.5l1.1-3.1l-1-4.8l-0.8-0.5l-3-4.9l-2.8-3.1l-0.5-0.9l-1.8-2l-2.1-1l-1.1-0.9l-0.4-0.7
	l0.1-0.4l0.6,0.1l0.4-0.3l-1.2-1.8l-5.2-4.2l0-0.7l0.9-0.6l1.2-1.3l1.3-2.1l-0.1-0.6l-2.4-1.8l-2.1-2.3l-0.7-1.9l0.3-2l-0.4-0.8
	l-0.7-0.7l-1.1-0.4l-2.7-0.1l-2.5-0.7l-2.7,0.4l-2.8-0.2l-1.6,0.6h-3.9l-2.1,0.4l-0.7-0.2l-0.4-0.8l0.3-0.5l1.2-0.6l3.8-0.8
	l-1.3-0.3l-1.1,0.1l-3.1-1.1l-2-1.6l-5.4-3.3l-1.6-1.3l-3.2-2.1l-1-0.1l-0.4-0.6l0.1-0.9l-1.8,0.4l-2.5-3.8l-1.1-0.5l-0.8,0.2
	l-2.7-0.8l-0.3-0.4l0.4-0.4l1-0.4l0.9,0l-0.6-1l-0.3-1.6l-0.7-1l-2-1l-2-0.3l-1.6-0.8l-3.3-3.8l-1.4-1.2l-2.9-1.3l-1.9-1.2l-0.8-0.1
	l-1.2,1.4l-0.5,0.2l-1.2-0.6l0,0l-0.6-7l3.7-0.1l4.4,2.4l10.1,4l4.1,2.5l2.5-0.1l2.4-4.3l-0.7-3.8l4.2-3.8l3.9-1l-1.1-6.9l3.3-8.9
	l0.3-2.5l1-4.4l3.1-4.2l3.4-1.6l4.4,1.3L220.7,174.1L220.7,174.1z"/>
<path id="CR-SJ" class="st0" d="M383.6,206l1.7,4.2l2.2,9.5l2.1,1.8l4,1.5l3,2.7l1.4,2.9l0.1,3.2l0.5,3.3l1.3,2.8l-0.9,1.8l-3.4,1.1
	l-1.4-0.6l-1.7-0.5l-1.6,1.8l-2,1.7l-3.4,0.7l-2.8-0.6l-8.2,1.1l-1.3,0.7l-0.2,3l-2.4,2.8l-2.8,2l-0.3,2.8l3.1-0.4l1.9,0.1l1,1.1
	l0,1.6l-0.8,1.8l-0.9,1.7l-1,1.2l-2.7,4.1l-0.5,1.7l-2,1.1l-3.7,2.8l-3.6,1.8l-1.1,0.3l0.3,2.6l-0.9,1.8l2,1l3.1,0.2l3.3-0.8
	l2.4-0.1l5.1-3.1l1.4-0.6l1.8,4.7l2.3,3.5l4.8,2.1l0.1,2.9l-0.2,1.9l0.7,1.1l2,0.2l2,1.3l0.6,1.3l1,0.5l1.7-0.9l2.9,2.9l1.5,0.8
	l2.1,0.3l1-0.5l3.2,0.5l0.8,1.5l0,3.6l1,2.7l2.5,1.8l2.9,0.6l2.2,1l2.3,0.6l2.8,1.1l1.8-0.2l-0.6,2.5l0.8,2.9l1.4,0.9l2.8,0.1
	l0.9,2.1l2.3,0.6l4-1l2.4,1.1l3.1-2l1.1-2.1l1.4-1.2l2.1-0.3l2.4,0.9l2.3,2.6l2,0.9l4.7,2.9l3.6,0.9l2.7,1.1l6.2,5.3l4.2,2l0,0
	l3.2,2.9l1.3,6l2,4.8l4,8.2l4.5,3.2l0,0l-2.7,3.6l-1.8,3l-2.8,2.7l-2.8,6l-1.8,1.8l-2.3,1.6l-1.7,2.5l0.3,1.2l-0.4,4.2l-2.2,3.1
	l-0.1,1.2l2,1.7l2.7,1.1l4-0.1l1.2,2.7l0.3,1.6l-1.6,4.2l-2.8,2.8l-0.1,4l-1.4,3.1l-1.9,1.7l-3.1,1.5l-4.1,0.5l-2.5-1.9l-9-3.7
	l-3.2-4.4l-4.6-2.1l-3.6-1.1l-2.1-3.7l-2.3-5.2l-3.5-6l-6.4-4.5l-4.3,5.2l-5-0.9l-6.4-3.3l-5.2-4.3l-0.6-6.5l0-3.2l2-4.4l-2.3-1
	l-2.1-0.1l-2.2-1.5l-2.6-2.8l-2.3-4.8l-0.6-3.3l-3.1-0.7l-1.5,1.5l-1.2,2l-3.5,0.7l-3.7-3.4l-1.8-4.4l-2.9,0.6l-1.5-2.9l-0.3-1.7
	l-3.8-2.8l-3.4-1.7l-2.6-4l-3.4-1.4l-0.3-3.9l0.5-6.6L354,318l-3.8,1.6l-2.2-0.8l-2.2-3.4l0.7-6l-1-2.2l-1.6-0.8l-4.1-0.4l-6,2.1
	l-4.1-2.1l-2.6,0.2l-3.2,0l-5.4-1.9l-4.5-2.8l-3.3,2.4l-6,0.2l-3.3,0.4l-4.4-0.6l-1.4,2.4l1.6,3.8l-1.9,2.8l-2.3,3l-2.9,3.2
	l-1.9-1.6l-0.9-2.7l-3.2,0.4l-3.5,0.7l-6,0.2l-3.5-1.1l-1.3-0.5l-2.6-3.2l-1-3.4l-0.1-3.6l-4.5-4.8l-0.9-2.5l0.5-4.6l-1.6-4.5
	l0.5-5.7l1.3-0.8l4.6,0.2l3.5-3.1l-1.3-2l-2.7,0.1l-1.6-4.4l-3.3,0.1l0.1-2.5l2-2.2l0,0l2.5,0l2.7-4.2l0.5-1.6l2.2-2.8l2.6-0.8l3-3
	l1.6-1.1l2.7-1.3l1.1-1.1l2.7-1.7l2.6,0.1l7.7-1.6l0.1-0.3l4.7,0l2.6,0.7l3.1,1.9l4.7-0.2l4.7-1.5l7.6-0.6l3.2-1.2l2.8-2.1l1.4-1.6
	l2-1.7l2.8-1.3l2.2,0.1l0,0l2.2,0.6l1.3,0.6l0.9,0.2l2.4,0.2l3.5-1.2l2.9,0.4l0.9,0.6l3.6-1.1l2.4-0.4l1.1-0.6l2.9,0l2.9-1.2
	l3.1-1.8l2.5-2.8l1-2.9l0.5-2.9l-2.4-3.4l-1.1-1.9l0.5-1.2l0.1-1.7l0.8-1.6l3.4-0.2l2.3-0.5l1.6-2.1l0.3-6.5l-0.1-2.5l1.7-2.2
	l9.2-6.3l0,0l-1.1,2.2L383.6,206z"/>
</svg>
